<?xml version="1.0" encoding="iso-8859-1"?>
<!-- Generator: Adobe Illustrator 17.1.0, SVG Export Plug-In . SVG Version: 6.00 Build 0)  -->
<!DOCTYPE svg PUBLIC "-//W3C//DTD SVG 1.1//EN" "http://www.w3.org/Graphics/SVG/1.1/DTD/svg11.dtd">
<svg version="1.1" id="Capa_1" xmlns="http://www.w3.org/2000/svg" xmlns:xlink="http://www.w3.org/1999/xlink" x="0px" y="0px"
	 viewBox="0 0 512 512" style="enable-background:new 0 0 512 512;" xml:space="preserve">
<g>
	<path d="M474.045,173.813c-4.201,1.371-6.494,5.888-5.123,10.088c7.571,23.199,11.411,47.457,11.411,72.1
		c0,62.014-24.149,120.315-68,164.166s-102.153,68-164.167,68s-120.316-24.149-164.167-68S16,318.014,16,256
		S40.149,135.684,84,91.833s102.153-68,164.167-68c32.889,0,64.668,6.734,94.455,20.017c28.781,12.834,54.287,31.108,75.81,54.315
		c3.004,3.239,8.066,3.431,11.306,0.425c3.24-3.004,3.43-8.065,0.426-11.306c-23-24.799-50.26-44.328-81.024-58.047
		C317.287,15.035,283.316,7.833,248.167,7.833c-66.288,0-128.608,25.813-175.48,72.687C25.814,127.392,0,189.712,0,256
		c0,66.287,25.814,128.607,72.687,175.479c46.872,46.873,109.192,72.687,175.48,72.687s128.608-25.813,175.48-72.687
		c46.873-46.872,72.687-109.192,72.687-175.479c0-26.332-4.105-52.26-12.201-77.064
		C482.762,174.736,478.245,172.445,474.045,173.813z"/>
</g>
<g>
</g>
<g>
</g>
<g>
</g>
<g>
</g>
<g>
</g>
<g>
</g>
<g>
</g>
<g>
</g>
<g>
</g>
<g>
</g>
<g>
</g>
<g>
</g>
<g>
</g>
<g>
</g>
<g>
</g>
</svg>
